<mxfile host="Electron" agent="Mozilla/5.0 (Windows NT 10.0; Win64; x64) AppleWebKit/537.36 (KHTML, like Gecko) draw.io/26.0.16 Chrome/132.0.6834.196 Electron/34.2.0 Safari/537.36" version="26.0.16">
  <diagram name="Page-1" id="GUuWuFQuGnMehdOBSOGq">
    <mxGraphModel dx="1434" dy="836" grid="1" gridSize="10" guides="1" tooltips="1" connect="1" arrows="1" fold="1" page="1" pageScale="1" pageWidth="1169" pageHeight="827" math="0" shadow="0">
      <root>
        <mxCell id="0" />
        <mxCell id="1" parent="0" />
        <mxCell id="bvdnGXiHSrHb0jFeeu1T-123" value="" style="rounded=0;whiteSpace=wrap;html=1;strokeWidth=2;" parent="1" vertex="1">
          <mxGeometry x="360" y="160" width="150" height="40" as="geometry" />
        </mxCell>
        <mxCell id="bvdnGXiHSrHb0jFeeu1T-1" value="" style="rounded=0;whiteSpace=wrap;html=1;strokeWidth=2;" parent="1" vertex="1">
          <mxGeometry x="420" y="330" width="410" height="60" as="geometry" />
        </mxCell>
        <mxCell id="bvdnGXiHSrHb0jFeeu1T-2" value="" style="rounded=0;whiteSpace=wrap;html=1;fillColor=#fff2cc;strokeColor=#000000;strokeWidth=1;" parent="1" vertex="1">
          <mxGeometry x="430" y="340" width="40" height="40" as="geometry" />
        </mxCell>
        <mxCell id="bvdnGXiHSrHb0jFeeu1T-3" value="" style="rounded=0;whiteSpace=wrap;html=1;fillColor=#fff2cc;strokeColor=#000000;" parent="1" vertex="1">
          <mxGeometry x="480" y="340" width="40" height="40" as="geometry" />
        </mxCell>
        <mxCell id="bvdnGXiHSrHb0jFeeu1T-4" value="" style="rounded=0;whiteSpace=wrap;html=1;fillColor=#fff2cc;strokeColor=#000000;" parent="1" vertex="1">
          <mxGeometry x="530" y="340" width="40" height="40" as="geometry" />
        </mxCell>
        <mxCell id="bvdnGXiHSrHb0jFeeu1T-5" value="" style="rounded=0;whiteSpace=wrap;html=1;fillColor=#fff2cc;strokeColor=#000000;" parent="1" vertex="1">
          <mxGeometry x="580" y="340" width="40" height="40" as="geometry" />
        </mxCell>
        <mxCell id="bvdnGXiHSrHb0jFeeu1T-6" value="" style="rounded=0;whiteSpace=wrap;html=1;fillColor=#f5f5f5;strokeColor=#FF6666;fontColor=#333333;strokeWidth=2;" parent="1" vertex="1">
          <mxGeometry x="630" y="340" width="40" height="40" as="geometry" />
        </mxCell>
        <mxCell id="bvdnGXiHSrHb0jFeeu1T-7" value="" style="rounded=0;whiteSpace=wrap;html=1;strokeWidth=2;" parent="1" vertex="1">
          <mxGeometry x="420" y="240" width="410" height="60" as="geometry" />
        </mxCell>
        <mxCell id="bvdnGXiHSrHb0jFeeu1T-8" value="" style="rounded=0;whiteSpace=wrap;html=1;fillColor=#d5e8d4;strokeColor=#000000;" parent="1" vertex="1">
          <mxGeometry x="780" y="250" width="40" height="40" as="geometry" />
        </mxCell>
        <mxCell id="bvdnGXiHSrHb0jFeeu1T-13" value="" style="rounded=0;whiteSpace=wrap;html=1;fillColor=#d5e8d4;strokeColor=#000000;" parent="1" vertex="1">
          <mxGeometry x="680" y="250" width="40" height="40" as="geometry" />
        </mxCell>
        <mxCell id="bvdnGXiHSrHb0jFeeu1T-14" value="" style="rounded=0;whiteSpace=wrap;html=1;fillColor=#d5e8d4;strokeColor=#000000;" parent="1" vertex="1">
          <mxGeometry x="730" y="250" width="40" height="40" as="geometry" />
        </mxCell>
        <mxCell id="bvdnGXiHSrHb0jFeeu1T-15" value="" style="rounded=0;whiteSpace=wrap;html=1;fillColor=#d5e8d4;strokeColor=#FF6666;strokeWidth=2;" parent="1" vertex="1">
          <mxGeometry x="580" y="250" width="40" height="40" as="geometry" />
        </mxCell>
        <mxCell id="bvdnGXiHSrHb0jFeeu1T-16" value="" style="rounded=0;whiteSpace=wrap;html=1;fillColor=#d5e8d4;strokeColor=#000000;" parent="1" vertex="1">
          <mxGeometry x="630" y="250" width="40" height="40" as="geometry" />
        </mxCell>
        <mxCell id="bvdnGXiHSrHb0jFeeu1T-17" value="" style="rounded=0;whiteSpace=wrap;html=1;fillColor=#67AB9F;strokeColor=#000000;" parent="1" vertex="1">
          <mxGeometry x="480" y="250" width="40" height="40" as="geometry" />
        </mxCell>
        <mxCell id="bvdnGXiHSrHb0jFeeu1T-18" value="" style="rounded=0;whiteSpace=wrap;html=1;fillColor=#67AB9F;strokeColor=#000000;" parent="1" vertex="1">
          <mxGeometry x="530" y="250" width="40" height="40" as="geometry" />
        </mxCell>
        <mxCell id="bvdnGXiHSrHb0jFeeu1T-19" value="" style="rounded=0;whiteSpace=wrap;html=1;fillColor=#67AB9F;strokeColor=#000000;strokeWidth=1;" parent="1" vertex="1">
          <mxGeometry x="430" y="250" width="40" height="40" as="geometry" />
        </mxCell>
        <mxCell id="bvdnGXiHSrHb0jFeeu1T-22" value="" style="endArrow=classic;html=1;rounded=0;entryX=0.25;entryY=0;entryDx=0;entryDy=0;fillColor=#f8cecc;strokeColor=#7EA6E0;exitX=0.288;exitY=0.999;exitDx=0;exitDy=0;exitPerimeter=0;strokeWidth=2;" parent="1" source="bvdnGXiHSrHb0jFeeu1T-26" target="bvdnGXiHSrHb0jFeeu1T-19" edge="1">
          <mxGeometry width="50" height="50" relative="1" as="geometry">
            <mxPoint x="390" y="190" as="sourcePoint" />
            <mxPoint x="400" y="150" as="targetPoint" />
          </mxGeometry>
        </mxCell>
        <mxCell id="bvdnGXiHSrHb0jFeeu1T-23" value="" style="endArrow=classic;html=1;rounded=0;entryX=0.25;entryY=0;entryDx=0;entryDy=0;fillColor=#f8cecc;strokeColor=#7EA6E0;exitX=0.576;exitY=1.005;exitDx=0;exitDy=0;exitPerimeter=0;strokeWidth=2;" parent="1" source="bvdnGXiHSrHb0jFeeu1T-26" target="bvdnGXiHSrHb0jFeeu1T-17" edge="1">
          <mxGeometry width="50" height="50" relative="1" as="geometry">
            <mxPoint x="410" y="190" as="sourcePoint" />
            <mxPoint x="450" y="250" as="targetPoint" />
          </mxGeometry>
        </mxCell>
        <mxCell id="bvdnGXiHSrHb0jFeeu1T-24" value="" style="endArrow=classic;html=1;rounded=0;entryX=0.25;entryY=0;entryDx=0;entryDy=0;fillColor=#f8cecc;strokeColor=#7EA6E0;exitX=0.924;exitY=1.012;exitDx=0;exitDy=0;exitPerimeter=0;strokeWidth=2;" parent="1" source="bvdnGXiHSrHb0jFeeu1T-26" edge="1">
          <mxGeometry width="50" height="50" relative="1" as="geometry">
            <mxPoint x="460" y="190" as="sourcePoint" />
            <mxPoint x="540" y="250" as="targetPoint" />
          </mxGeometry>
        </mxCell>
        <mxCell id="bvdnGXiHSrHb0jFeeu1T-26" value="&lt;b&gt;&lt;font style=&quot;font-size: 13px;&quot;&gt;již zpracované pozice&lt;/font&gt;&lt;/b&gt;" style="text;html=1;align=center;verticalAlign=middle;whiteSpace=wrap;rounded=0;strokeWidth=2;" parent="1" vertex="1">
          <mxGeometry x="360" y="160" width="150" height="40" as="geometry" />
        </mxCell>
        <mxCell id="bvdnGXiHSrHb0jFeeu1T-27" value="" style="endArrow=classic;html=1;rounded=0;entryX=0.5;entryY=0;entryDx=0;entryDy=0;fillColor=#dae8fc;strokeColor=#FF6666;exitX=0.5;exitY=1;exitDx=0;exitDy=0;strokeWidth=2;" parent="1" source="bvdnGXiHSrHb0jFeeu1T-121" target="bvdnGXiHSrHb0jFeeu1T-15" edge="1">
          <mxGeometry width="50" height="50" relative="1" as="geometry">
            <mxPoint x="600" y="210" as="sourcePoint" />
            <mxPoint x="590" y="300" as="targetPoint" />
          </mxGeometry>
        </mxCell>
        <mxCell id="bvdnGXiHSrHb0jFeeu1T-30" value="" style="endArrow=classic;html=1;rounded=0;exitX=0.171;exitY=1.022;exitDx=0;exitDy=0;entryX=0.5;entryY=0;entryDx=0;entryDy=0;fillColor=#fff2cc;strokeColor=#7EA6E0;exitPerimeter=0;strokeWidth=2;" parent="1" source="bvdnGXiHSrHb0jFeeu1T-34" target="bvdnGXiHSrHb0jFeeu1T-16" edge="1">
          <mxGeometry width="50" height="50" relative="1" as="geometry">
            <mxPoint x="680.0000000000001" y="190" as="sourcePoint" />
            <mxPoint x="720" y="300" as="targetPoint" />
          </mxGeometry>
        </mxCell>
        <mxCell id="bvdnGXiHSrHb0jFeeu1T-31" value="" style="endArrow=classic;html=1;rounded=0;exitX=0.409;exitY=1.031;exitDx=0;exitDy=0;entryX=0.5;entryY=0;entryDx=0;entryDy=0;fillColor=#fff2cc;strokeColor=#7EA6E0;exitPerimeter=0;strokeWidth=2;" parent="1" source="bvdnGXiHSrHb0jFeeu1T-34" target="bvdnGXiHSrHb0jFeeu1T-13" edge="1">
          <mxGeometry width="50" height="50" relative="1" as="geometry">
            <mxPoint x="701.42" y="191.38" as="sourcePoint" />
            <mxPoint x="720" y="300" as="targetPoint" />
          </mxGeometry>
        </mxCell>
        <mxCell id="bvdnGXiHSrHb0jFeeu1T-32" value="" style="endArrow=classic;html=1;rounded=0;exitX=0.642;exitY=1.016;exitDx=0;exitDy=0;entryX=0.5;entryY=0;entryDx=0;entryDy=0;fillColor=#fff2cc;strokeColor=#7EA6E0;exitPerimeter=0;strokeWidth=2;" parent="1" source="bvdnGXiHSrHb0jFeeu1T-34" target="bvdnGXiHSrHb0jFeeu1T-14" edge="1">
          <mxGeometry width="50" height="50" relative="1" as="geometry">
            <mxPoint x="725" y="190" as="sourcePoint" />
            <mxPoint x="710" y="260" as="targetPoint" />
          </mxGeometry>
        </mxCell>
        <mxCell id="bvdnGXiHSrHb0jFeeu1T-33" value="" style="endArrow=classic;html=1;rounded=0;exitX=0.764;exitY=1;exitDx=0;exitDy=0;entryX=0.5;entryY=0;entryDx=0;entryDy=0;fillColor=#fff2cc;strokeColor=#7EA6E0;exitPerimeter=0;strokeWidth=2;" parent="1" source="bvdnGXiHSrHb0jFeeu1T-34" target="bvdnGXiHSrHb0jFeeu1T-8" edge="1">
          <mxGeometry width="50" height="50" relative="1" as="geometry">
            <mxPoint x="770" y="190" as="sourcePoint" />
            <mxPoint x="760" y="260" as="targetPoint" />
          </mxGeometry>
        </mxCell>
        <mxCell id="bvdnGXiHSrHb0jFeeu1T-34" value="&lt;font style=&quot;font-size: 13px;&quot;&gt;&lt;b style=&quot;&quot;&gt;data ke zpracování&lt;/b&gt;&lt;/font&gt;" style="rounded=0;whiteSpace=wrap;html=1;strokeColor=#000000;strokeWidth=2;" parent="1" vertex="1">
          <mxGeometry x="690" y="160" width="170" height="40" as="geometry" />
        </mxCell>
        <mxCell id="bvdnGXiHSrHb0jFeeu1T-35" value="&lt;font style=&quot;font-size: 15px;&quot;&gt;&lt;b style=&quot;&quot;&gt;vyrovávací paměť 1.&lt;/b&gt;&lt;/font&gt;" style="text;html=1;align=left;verticalAlign=middle;whiteSpace=wrap;rounded=0;" parent="1" vertex="1">
          <mxGeometry x="840" y="255" width="160" height="30" as="geometry" />
        </mxCell>
        <mxCell id="bvdnGXiHSrHb0jFeeu1T-36" value="&lt;font style=&quot;font-size: 15px;&quot;&gt;&lt;b style=&quot;&quot;&gt;vyrovávací paměť 2.&lt;/b&gt;&lt;/font&gt;" style="text;html=1;align=left;verticalAlign=middle;whiteSpace=wrap;rounded=0;" parent="1" vertex="1">
          <mxGeometry x="840" y="340" width="160" height="30" as="geometry" />
        </mxCell>
        <mxCell id="bvdnGXiHSrHb0jFeeu1T-38" value="" style="rounded=0;whiteSpace=wrap;html=1;fillColor=#f5f5f5;fontColor=#333333;strokeColor=#666666;strokeWidth=2;" parent="1" vertex="1">
          <mxGeometry x="20" y="330" width="250" height="60" as="geometry" />
        </mxCell>
        <mxCell id="bvdnGXiHSrHb0jFeeu1T-39" value="&lt;b&gt;&lt;font style=&quot;font-size: 13px;&quot;&gt;ukazatel na aktuálně plněnou vyrovnávací paměť&lt;/font&gt;&lt;/b&gt;" style="text;html=1;align=center;verticalAlign=middle;whiteSpace=wrap;rounded=0;" parent="1" vertex="1">
          <mxGeometry x="30" y="330" width="180" height="60" as="geometry" />
        </mxCell>
        <mxCell id="bvdnGXiHSrHb0jFeeu1T-40" value="" style="rounded=0;whiteSpace=wrap;html=1;fillColor=#e1d5e7;strokeColor=#9673a6;strokeWidth=2;" parent="1" vertex="1">
          <mxGeometry x="220" y="340" width="40" height="40" as="geometry" />
        </mxCell>
        <mxCell id="bvdnGXiHSrHb0jFeeu1T-42" value="" style="endArrow=classic;html=1;rounded=0;exitX=1;exitY=0.5;exitDx=0;exitDy=0;entryX=0;entryY=0.5;entryDx=0;entryDy=0;strokeWidth=2;" parent="1" source="bvdnGXiHSrHb0jFeeu1T-46" target="bvdnGXiHSrHb0jFeeu1T-1" edge="1">
          <mxGeometry width="50" height="50" relative="1" as="geometry">
            <mxPoint x="290" y="380" as="sourcePoint" />
            <mxPoint x="300" y="342" as="targetPoint" />
          </mxGeometry>
        </mxCell>
        <mxCell id="bvdnGXiHSrHb0jFeeu1T-46" value="" style="ellipse;whiteSpace=wrap;html=1;aspect=fixed;fillColor=#000000;" parent="1" vertex="1">
          <mxGeometry x="235" y="355" width="10" height="10" as="geometry" />
        </mxCell>
        <mxCell id="bvdnGXiHSrHb0jFeeu1T-47" value="" style="rounded=0;whiteSpace=wrap;html=1;fillColor=#f5f5f5;fontColor=#333333;strokeColor=#666666;strokeWidth=2;" parent="1" vertex="1">
          <mxGeometry x="20" y="230" width="250" height="60" as="geometry" />
        </mxCell>
        <mxCell id="bvdnGXiHSrHb0jFeeu1T-48" value="&lt;b&gt;&lt;font style=&quot;font-size: 13px;&quot;&gt;ukazatel na aktuálně zpracovávanou vyrovnávací paměť&lt;/font&gt;&lt;/b&gt;" style="text;html=1;align=center;verticalAlign=middle;whiteSpace=wrap;rounded=0;" parent="1" vertex="1">
          <mxGeometry x="30" y="230" width="180" height="60" as="geometry" />
        </mxCell>
        <mxCell id="bvdnGXiHSrHb0jFeeu1T-49" value="" style="rounded=0;whiteSpace=wrap;html=1;fillColor=#f8cecc;strokeColor=#b85450;strokeWidth=2;" parent="1" vertex="1">
          <mxGeometry x="220" y="240" width="40" height="40" as="geometry" />
        </mxCell>
        <mxCell id="bvdnGXiHSrHb0jFeeu1T-50" value="" style="ellipse;whiteSpace=wrap;html=1;aspect=fixed;fillColor=#000000;" parent="1" vertex="1">
          <mxGeometry x="235" y="255" width="10" height="10" as="geometry" />
        </mxCell>
        <mxCell id="bvdnGXiHSrHb0jFeeu1T-51" value="" style="endArrow=classic;html=1;rounded=0;exitX=1;exitY=0.5;exitDx=0;exitDy=0;entryX=0;entryY=0.5;entryDx=0;entryDy=0;strokeWidth=2;" parent="1" source="bvdnGXiHSrHb0jFeeu1T-50" target="bvdnGXiHSrHb0jFeeu1T-7" edge="1">
          <mxGeometry width="50" height="50" relative="1" as="geometry">
            <mxPoint x="190" y="290" as="sourcePoint" />
            <mxPoint x="380" y="250" as="targetPoint" />
          </mxGeometry>
        </mxCell>
        <mxCell id="bvdnGXiHSrHb0jFeeu1T-52" value="" style="rounded=0;whiteSpace=wrap;html=1;fillColor=#f5f5f5;strokeColor=#666666;fontColor=#333333;" parent="1" vertex="1">
          <mxGeometry x="680" y="340" width="40" height="40" as="geometry" />
        </mxCell>
        <mxCell id="bvdnGXiHSrHb0jFeeu1T-53" value="" style="rounded=0;whiteSpace=wrap;html=1;fillColor=#f5f5f5;strokeColor=#666666;fontColor=#333333;" parent="1" vertex="1">
          <mxGeometry x="730" y="340" width="40" height="40" as="geometry" />
        </mxCell>
        <mxCell id="bvdnGXiHSrHb0jFeeu1T-54" value="" style="rounded=0;whiteSpace=wrap;html=1;fillColor=#f5f5f5;strokeColor=#666666;fontColor=#333333;" parent="1" vertex="1">
          <mxGeometry x="780" y="340" width="40" height="40" as="geometry" />
        </mxCell>
        <mxCell id="bvdnGXiHSrHb0jFeeu1T-55" value="" style="endArrow=classic;html=1;rounded=0;entryX=0.5;entryY=1;entryDx=0;entryDy=0;fillColor=#f8cecc;strokeColor=#7EA6E0;exitX=0.142;exitY=-0.023;exitDx=0;exitDy=0;exitPerimeter=0;strokeWidth=2;" parent="1" source="bvdnGXiHSrHb0jFeeu1T-60" target="bvdnGXiHSrHb0jFeeu1T-2" edge="1">
          <mxGeometry width="50" height="50" relative="1" as="geometry">
            <mxPoint x="470" y="440" as="sourcePoint" />
            <mxPoint x="455" y="460" as="targetPoint" />
          </mxGeometry>
        </mxCell>
        <mxCell id="bvdnGXiHSrHb0jFeeu1T-56" value="" style="endArrow=classic;html=1;rounded=0;entryX=0.5;entryY=1;entryDx=0;entryDy=0;fillColor=#f8cecc;strokeColor=#7EA6E0;exitX=0.25;exitY=0;exitDx=0;exitDy=0;strokeWidth=2;" parent="1" source="bvdnGXiHSrHb0jFeeu1T-60" edge="1">
          <mxGeometry width="50" height="50" relative="1" as="geometry">
            <mxPoint x="510" y="440" as="sourcePoint" />
            <mxPoint x="500" y="380" as="targetPoint" />
          </mxGeometry>
        </mxCell>
        <mxCell id="bvdnGXiHSrHb0jFeeu1T-57" value="" style="endArrow=classic;html=1;rounded=0;entryX=0.5;entryY=1;entryDx=0;entryDy=0;fillColor=#f8cecc;strokeColor=#7EA6E0;exitX=0.5;exitY=0;exitDx=0;exitDy=0;strokeWidth=2;" parent="1" source="bvdnGXiHSrHb0jFeeu1T-60" edge="1">
          <mxGeometry width="50" height="50" relative="1" as="geometry">
            <mxPoint x="530" y="440" as="sourcePoint" />
            <mxPoint x="550" y="380" as="targetPoint" />
          </mxGeometry>
        </mxCell>
        <mxCell id="bvdnGXiHSrHb0jFeeu1T-58" value="" style="endArrow=classic;html=1;rounded=0;entryX=0.5;entryY=1;entryDx=0;entryDy=0;fillColor=#f8cecc;strokeColor=#7EA6E0;exitX=0.786;exitY=0;exitDx=0;exitDy=0;exitPerimeter=0;strokeWidth=2;" parent="1" source="bvdnGXiHSrHb0jFeeu1T-60" target="bvdnGXiHSrHb0jFeeu1T-5" edge="1">
          <mxGeometry width="50" height="50" relative="1" as="geometry">
            <mxPoint x="570" y="440" as="sourcePoint" />
            <mxPoint x="605" y="380" as="targetPoint" />
          </mxGeometry>
        </mxCell>
        <mxCell id="bvdnGXiHSrHb0jFeeu1T-59" value="" style="rounded=0;whiteSpace=wrap;html=1;strokeWidth=2;" parent="1" vertex="1">
          <mxGeometry x="420" y="440" width="130" height="40" as="geometry" />
        </mxCell>
        <mxCell id="bvdnGXiHSrHb0jFeeu1T-60" value="&lt;b&gt;&lt;font style=&quot;font-size: 13px;&quot;&gt;zaplňený prostor&lt;/font&gt;&lt;/b&gt;" style="text;html=1;align=center;verticalAlign=middle;whiteSpace=wrap;rounded=0;" parent="1" vertex="1">
          <mxGeometry x="420" y="440" width="130" height="40" as="geometry" />
        </mxCell>
        <mxCell id="bvdnGXiHSrHb0jFeeu1T-61" value="" style="rounded=0;whiteSpace=wrap;html=1;strokeWidth=2;" parent="1" vertex="1">
          <mxGeometry x="680" y="440" width="140" height="40" as="geometry" />
        </mxCell>
        <mxCell id="bvdnGXiHSrHb0jFeeu1T-62" value="&lt;b&gt;&lt;font style=&quot;font-size: 13px;&quot;&gt;dostupný prostor&lt;/font&gt;&lt;/b&gt;" style="text;html=1;align=center;verticalAlign=middle;whiteSpace=wrap;rounded=0;" parent="1" vertex="1">
          <mxGeometry x="680" y="440" width="140" height="40" as="geometry" />
        </mxCell>
        <mxCell id="bvdnGXiHSrHb0jFeeu1T-63" value="" style="endArrow=classic;html=1;rounded=0;entryX=0.5;entryY=1;entryDx=0;entryDy=0;strokeColor=#FF6666;strokeWidth=2;" parent="1" target="bvdnGXiHSrHb0jFeeu1T-6" edge="1">
          <mxGeometry width="50" height="50" relative="1" as="geometry">
            <mxPoint x="630" y="440" as="sourcePoint" />
            <mxPoint x="700" y="440" as="targetPoint" />
          </mxGeometry>
        </mxCell>
        <mxCell id="bvdnGXiHSrHb0jFeeu1T-64" value="" style="endArrow=classic;html=1;rounded=0;entryX=0.536;entryY=1.013;entryDx=0;entryDy=0;entryPerimeter=0;exitX=0.215;exitY=-0.022;exitDx=0;exitDy=0;exitPerimeter=0;strokeWidth=2;" parent="1" source="bvdnGXiHSrHb0jFeeu1T-62" target="bvdnGXiHSrHb0jFeeu1T-52" edge="1">
          <mxGeometry width="50" height="50" relative="1" as="geometry">
            <mxPoint x="660" y="470" as="sourcePoint" />
            <mxPoint x="710" y="420" as="targetPoint" />
          </mxGeometry>
        </mxCell>
        <mxCell id="bvdnGXiHSrHb0jFeeu1T-65" value="" style="endArrow=classic;html=1;rounded=0;entryX=0.5;entryY=1;entryDx=0;entryDy=0;exitX=0.5;exitY=0;exitDx=0;exitDy=0;strokeWidth=2;" parent="1" source="bvdnGXiHSrHb0jFeeu1T-62" target="bvdnGXiHSrHb0jFeeu1T-53" edge="1">
          <mxGeometry width="50" height="50" relative="1" as="geometry">
            <mxPoint x="699" y="450" as="sourcePoint" />
            <mxPoint x="711" y="391" as="targetPoint" />
          </mxGeometry>
        </mxCell>
        <mxCell id="bvdnGXiHSrHb0jFeeu1T-66" value="" style="endArrow=classic;html=1;rounded=0;exitX=0.777;exitY=-0.017;exitDx=0;exitDy=0;exitPerimeter=0;entryX=0.5;entryY=1;entryDx=0;entryDy=0;strokeWidth=2;" parent="1" source="bvdnGXiHSrHb0jFeeu1T-62" target="bvdnGXiHSrHb0jFeeu1T-54" edge="1">
          <mxGeometry width="50" height="50" relative="1" as="geometry">
            <mxPoint x="760" y="450" as="sourcePoint" />
            <mxPoint x="810" y="400" as="targetPoint" />
          </mxGeometry>
        </mxCell>
        <mxCell id="bvdnGXiHSrHb0jFeeu1T-67" value="" style="rounded=0;whiteSpace=wrap;html=1;strokeWidth=2;" parent="1" vertex="1">
          <mxGeometry x="420" y="720" width="410" height="60" as="geometry" />
        </mxCell>
        <mxCell id="bvdnGXiHSrHb0jFeeu1T-72" value="" style="rounded=0;whiteSpace=wrap;html=1;fillColor=#f5f5f5;strokeColor=#666666;fontColor=#333333;" parent="1" vertex="1">
          <mxGeometry x="630" y="730" width="40" height="40" as="geometry" />
        </mxCell>
        <mxCell id="bvdnGXiHSrHb0jFeeu1T-73" value="" style="rounded=0;whiteSpace=wrap;html=1;strokeWidth=2;" parent="1" vertex="1">
          <mxGeometry x="420" y="630" width="410" height="60" as="geometry" />
        </mxCell>
        <mxCell id="bvdnGXiHSrHb0jFeeu1T-74" value="" style="rounded=0;whiteSpace=wrap;html=1;fillColor=#d5e8d4;strokeColor=#000000;" parent="1" vertex="1">
          <mxGeometry x="780" y="640" width="40" height="40" as="geometry" />
        </mxCell>
        <mxCell id="bvdnGXiHSrHb0jFeeu1T-75" value="" style="rounded=0;whiteSpace=wrap;html=1;fillColor=#d5e8d4;strokeColor=#000000;" parent="1" vertex="1">
          <mxGeometry x="680" y="640" width="40" height="40" as="geometry" />
        </mxCell>
        <mxCell id="bvdnGXiHSrHb0jFeeu1T-76" value="" style="rounded=0;whiteSpace=wrap;html=1;fillColor=#d5e8d4;strokeColor=#000000;" parent="1" vertex="1">
          <mxGeometry x="730" y="640" width="40" height="40" as="geometry" />
        </mxCell>
        <mxCell id="bvdnGXiHSrHb0jFeeu1T-77" value="" style="rounded=0;whiteSpace=wrap;html=1;fillColor=#d5e8d4;strokeColor=#000000;" parent="1" vertex="1">
          <mxGeometry x="580" y="640" width="40" height="40" as="geometry" />
        </mxCell>
        <mxCell id="bvdnGXiHSrHb0jFeeu1T-78" value="" style="rounded=0;whiteSpace=wrap;html=1;fillColor=#d5e8d4;strokeColor=#000000;" parent="1" vertex="1">
          <mxGeometry x="630" y="640" width="40" height="40" as="geometry" />
        </mxCell>
        <mxCell id="bvdnGXiHSrHb0jFeeu1T-84" value="" style="endArrow=classic;html=1;rounded=0;entryX=0.5;entryY=0;entryDx=0;entryDy=0;fillColor=#f8cecc;strokeColor=#FF6666;exitX=0.5;exitY=1;exitDx=0;exitDy=0;strokeWidth=2;" parent="1" source="bvdnGXiHSrHb0jFeeu1T-135" target="bvdnGXiHSrHb0jFeeu1T-137" edge="1">
          <mxGeometry width="50" height="50" relative="1" as="geometry">
            <mxPoint x="250" y="520" as="sourcePoint" />
            <mxPoint x="330" y="580" as="targetPoint" />
          </mxGeometry>
        </mxCell>
        <mxCell id="bvdnGXiHSrHb0jFeeu1T-86" value="" style="endArrow=classic;html=1;rounded=0;entryX=0.5;entryY=0;entryDx=0;entryDy=0;fillColor=#dae8fc;strokeColor=#000000;exitX=0.262;exitY=1.007;exitDx=0;exitDy=0;exitPerimeter=0;strokeWidth=2;" parent="1" source="bvdnGXiHSrHb0jFeeu1T-92" target="bvdnGXiHSrHb0jFeeu1T-139" edge="1">
          <mxGeometry width="50" height="50" relative="1" as="geometry">
            <mxPoint x="560" y="580" as="sourcePoint" />
            <mxPoint x="590" y="690" as="targetPoint" />
          </mxGeometry>
        </mxCell>
        <mxCell id="bvdnGXiHSrHb0jFeeu1T-88" value="" style="endArrow=classic;html=1;rounded=0;exitX=0.578;exitY=0.997;exitDx=0;exitDy=0;entryX=0.5;entryY=0;entryDx=0;entryDy=0;fillColor=#fff2cc;strokeColor=#000000;exitPerimeter=0;strokeWidth=2;" parent="1" source="bvdnGXiHSrHb0jFeeu1T-92" target="bvdnGXiHSrHb0jFeeu1T-78" edge="1">
          <mxGeometry width="50" height="50" relative="1" as="geometry">
            <mxPoint x="680.0000000000001" y="580" as="sourcePoint" />
            <mxPoint x="720" y="690" as="targetPoint" />
          </mxGeometry>
        </mxCell>
        <mxCell id="bvdnGXiHSrHb0jFeeu1T-89" value="" style="endArrow=classic;html=1;rounded=0;exitX=0.684;exitY=1;exitDx=0;exitDy=0;entryX=0.5;entryY=0;entryDx=0;entryDy=0;fillColor=#fff2cc;strokeColor=#000000;exitPerimeter=0;strokeWidth=2;" parent="1" source="bvdnGXiHSrHb0jFeeu1T-92" target="bvdnGXiHSrHb0jFeeu1T-75" edge="1">
          <mxGeometry width="50" height="50" relative="1" as="geometry">
            <mxPoint x="701.42" y="581.38" as="sourcePoint" />
            <mxPoint x="720" y="690" as="targetPoint" />
          </mxGeometry>
        </mxCell>
        <mxCell id="bvdnGXiHSrHb0jFeeu1T-90" value="" style="endArrow=classic;html=1;rounded=0;exitX=0.789;exitY=1.016;exitDx=0;exitDy=0;entryX=0.5;entryY=0;entryDx=0;entryDy=0;fillColor=#fff2cc;strokeColor=#000000;exitPerimeter=0;strokeWidth=2;" parent="1" source="bvdnGXiHSrHb0jFeeu1T-92" target="bvdnGXiHSrHb0jFeeu1T-76" edge="1">
          <mxGeometry width="50" height="50" relative="1" as="geometry">
            <mxPoint x="725" y="580" as="sourcePoint" />
            <mxPoint x="710" y="650" as="targetPoint" />
          </mxGeometry>
        </mxCell>
        <mxCell id="bvdnGXiHSrHb0jFeeu1T-91" value="" style="endArrow=classic;html=1;rounded=0;exitX=0.897;exitY=1.007;exitDx=0;exitDy=0;entryX=0.5;entryY=0;entryDx=0;entryDy=0;fillColor=#fff2cc;strokeColor=#000000;exitPerimeter=0;strokeWidth=2;" parent="1" source="bvdnGXiHSrHb0jFeeu1T-92" target="bvdnGXiHSrHb0jFeeu1T-74" edge="1">
          <mxGeometry width="50" height="50" relative="1" as="geometry">
            <mxPoint x="770" y="580" as="sourcePoint" />
            <mxPoint x="760" y="650" as="targetPoint" />
          </mxGeometry>
        </mxCell>
        <mxCell id="bvdnGXiHSrHb0jFeeu1T-92" value="&lt;b&gt;&lt;font style=&quot;font-size: 13px;&quot;&gt;data ke zpracování&lt;/font&gt;&lt;/b&gt;" style="rounded=0;whiteSpace=wrap;html=1;strokeColor=#000000;strokeWidth=2;" parent="1" vertex="1">
          <mxGeometry x="570" y="550" width="190" height="40" as="geometry" />
        </mxCell>
        <mxCell id="bvdnGXiHSrHb0jFeeu1T-93" value="" style="rounded=0;whiteSpace=wrap;html=1;fillColor=#f5f5f5;fontColor=#333333;strokeColor=#666666;strokeWidth=2;" parent="1" vertex="1">
          <mxGeometry x="20" y="720" width="250" height="60" as="geometry" />
        </mxCell>
        <mxCell id="bvdnGXiHSrHb0jFeeu1T-94" value="&lt;b&gt;&lt;font style=&quot;font-size: 13px;&quot;&gt;ukazatel na aktuálně plněnou vyrovnávací paměť&lt;/font&gt;&lt;/b&gt;" style="text;html=1;align=center;verticalAlign=middle;whiteSpace=wrap;rounded=0;" parent="1" vertex="1">
          <mxGeometry x="30" y="720" width="180" height="60" as="geometry" />
        </mxCell>
        <mxCell id="bvdnGXiHSrHb0jFeeu1T-95" value="" style="rounded=0;whiteSpace=wrap;html=1;fillColor=#e1d5e7;strokeColor=#9673a6;strokeWidth=2;" parent="1" vertex="1">
          <mxGeometry x="220" y="730" width="40" height="40" as="geometry" />
        </mxCell>
        <mxCell id="bvdnGXiHSrHb0jFeeu1T-96" value="" style="endArrow=classic;html=1;rounded=0;exitX=1;exitY=0.5;exitDx=0;exitDy=0;entryX=0;entryY=0.5;entryDx=0;entryDy=0;strokeWidth=2;" parent="1" source="bvdnGXiHSrHb0jFeeu1T-97" target="bvdnGXiHSrHb0jFeeu1T-73" edge="1">
          <mxGeometry width="50" height="50" relative="1" as="geometry">
            <mxPoint x="290" y="770" as="sourcePoint" />
            <mxPoint x="410" y="670" as="targetPoint" />
          </mxGeometry>
        </mxCell>
        <mxCell id="bvdnGXiHSrHb0jFeeu1T-97" value="" style="ellipse;whiteSpace=wrap;html=1;aspect=fixed;fillColor=#000000;" parent="1" vertex="1">
          <mxGeometry x="235" y="745" width="10" height="10" as="geometry" />
        </mxCell>
        <mxCell id="bvdnGXiHSrHb0jFeeu1T-98" value="" style="rounded=0;whiteSpace=wrap;html=1;fillColor=#f5f5f5;fontColor=#333333;strokeColor=#666666;strokeWidth=2;" parent="1" vertex="1">
          <mxGeometry x="20" y="620" width="250" height="60" as="geometry" />
        </mxCell>
        <mxCell id="bvdnGXiHSrHb0jFeeu1T-99" value="&lt;b&gt;&lt;font style=&quot;font-size: 13px;&quot;&gt;ukazatel na aktuálně zpracovávanou vyrovnávací paměť&lt;/font&gt;&lt;/b&gt;" style="text;html=1;align=center;verticalAlign=middle;whiteSpace=wrap;rounded=0;" parent="1" vertex="1">
          <mxGeometry x="30" y="620" width="180" height="60" as="geometry" />
        </mxCell>
        <mxCell id="bvdnGXiHSrHb0jFeeu1T-100" value="" style="rounded=0;whiteSpace=wrap;html=1;fillColor=#f8cecc;strokeColor=#b85450;strokeWidth=2;" parent="1" vertex="1">
          <mxGeometry x="220" y="630" width="40" height="40" as="geometry" />
        </mxCell>
        <mxCell id="bvdnGXiHSrHb0jFeeu1T-101" value="" style="ellipse;whiteSpace=wrap;html=1;aspect=fixed;fillColor=#000000;" parent="1" vertex="1">
          <mxGeometry x="235" y="645" width="10" height="10" as="geometry" />
        </mxCell>
        <mxCell id="bvdnGXiHSrHb0jFeeu1T-102" value="" style="endArrow=classic;html=1;rounded=0;exitX=1;exitY=0.5;exitDx=0;exitDy=0;entryX=0;entryY=0.5;entryDx=0;entryDy=0;strokeWidth=2;" parent="1" source="bvdnGXiHSrHb0jFeeu1T-101" target="bvdnGXiHSrHb0jFeeu1T-67" edge="1">
          <mxGeometry width="50" height="50" relative="1" as="geometry">
            <mxPoint x="190" y="680" as="sourcePoint" />
            <mxPoint x="380" y="640" as="targetPoint" />
          </mxGeometry>
        </mxCell>
        <mxCell id="bvdnGXiHSrHb0jFeeu1T-103" value="" style="rounded=0;whiteSpace=wrap;html=1;fillColor=#f5f5f5;strokeColor=#666666;fontColor=#333333;" parent="1" vertex="1">
          <mxGeometry x="680" y="730" width="40" height="40" as="geometry" />
        </mxCell>
        <mxCell id="bvdnGXiHSrHb0jFeeu1T-104" value="" style="rounded=0;whiteSpace=wrap;html=1;fillColor=#f5f5f5;strokeColor=#666666;fontColor=#333333;" parent="1" vertex="1">
          <mxGeometry x="730" y="730" width="40" height="40" as="geometry" />
        </mxCell>
        <mxCell id="bvdnGXiHSrHb0jFeeu1T-105" value="" style="rounded=0;whiteSpace=wrap;html=1;fillColor=#f5f5f5;strokeColor=#666666;fontColor=#333333;" parent="1" vertex="1">
          <mxGeometry x="780" y="730" width="40" height="40" as="geometry" />
        </mxCell>
        <mxCell id="bvdnGXiHSrHb0jFeeu1T-106" value="" style="endArrow=classic;html=1;rounded=0;entryX=0.5;entryY=1;entryDx=0;entryDy=0;fillColor=#f8cecc;strokeColor=#FF6666;exitX=0.5;exitY=0;exitDx=0;exitDy=0;strokeWidth=2;" parent="1" source="bvdnGXiHSrHb0jFeeu1T-129" edge="1">
          <mxGeometry width="50" height="50" relative="1" as="geometry">
            <mxPoint x="470" y="830" as="sourcePoint" />
            <mxPoint x="450" y="770" as="targetPoint" />
          </mxGeometry>
        </mxCell>
        <mxCell id="bvdnGXiHSrHb0jFeeu1T-112" value="" style="rounded=0;whiteSpace=wrap;html=1;strokeWidth=2;" parent="1" vertex="1">
          <mxGeometry x="550" y="820" width="190" height="40" as="geometry" />
        </mxCell>
        <mxCell id="bvdnGXiHSrHb0jFeeu1T-113" value="&lt;b&gt;&lt;font style=&quot;font-size: 13px;&quot;&gt;dostupný prostor&lt;/font&gt;&lt;/b&gt;" style="text;html=1;align=center;verticalAlign=middle;whiteSpace=wrap;rounded=0;strokeWidth=1;" parent="1" vertex="1">
          <mxGeometry x="550" y="820" width="190" height="40" as="geometry" />
        </mxCell>
        <mxCell id="bvdnGXiHSrHb0jFeeu1T-115" value="" style="endArrow=classic;html=1;rounded=0;entryX=0.536;entryY=1.013;entryDx=0;entryDy=0;entryPerimeter=0;exitX=0.75;exitY=0;exitDx=0;exitDy=0;strokeWidth=2;" parent="1" source="bvdnGXiHSrHb0jFeeu1T-113" target="bvdnGXiHSrHb0jFeeu1T-103" edge="1">
          <mxGeometry width="50" height="50" relative="1" as="geometry">
            <mxPoint x="660" y="860" as="sourcePoint" />
            <mxPoint x="710" y="810" as="targetPoint" />
          </mxGeometry>
        </mxCell>
        <mxCell id="bvdnGXiHSrHb0jFeeu1T-116" value="" style="endArrow=classic;html=1;rounded=0;entryX=0.5;entryY=1;entryDx=0;entryDy=0;exitX=0.868;exitY=-0.007;exitDx=0;exitDy=0;exitPerimeter=0;strokeWidth=2;" parent="1" source="bvdnGXiHSrHb0jFeeu1T-113" target="bvdnGXiHSrHb0jFeeu1T-104" edge="1">
          <mxGeometry width="50" height="50" relative="1" as="geometry">
            <mxPoint x="699" y="840" as="sourcePoint" />
            <mxPoint x="711" y="781" as="targetPoint" />
          </mxGeometry>
        </mxCell>
        <mxCell id="bvdnGXiHSrHb0jFeeu1T-117" value="" style="endArrow=classic;html=1;rounded=0;exitX=0.923;exitY=0;exitDx=0;exitDy=0;exitPerimeter=0;entryX=0.5;entryY=1;entryDx=0;entryDy=0;strokeWidth=2;" parent="1" source="bvdnGXiHSrHb0jFeeu1T-113" target="bvdnGXiHSrHb0jFeeu1T-105" edge="1">
          <mxGeometry width="50" height="50" relative="1" as="geometry">
            <mxPoint x="760" y="840" as="sourcePoint" />
            <mxPoint x="810" y="790" as="targetPoint" />
          </mxGeometry>
        </mxCell>
        <mxCell id="bvdnGXiHSrHb0jFeeu1T-118" value="" style="rounded=0;whiteSpace=wrap;html=1;strokeColor=#FF6666;strokeWidth=2;" parent="1" vertex="1">
          <mxGeometry x="560" y="440" width="110" height="40" as="geometry" />
        </mxCell>
        <mxCell id="bvdnGXiHSrHb0jFeeu1T-119" value="&lt;b&gt;&lt;font style=&quot;font-size: 13px;&quot;&gt;aktuálně plněná&lt;/font&gt;&lt;/b&gt;&lt;div&gt;&lt;b&gt;&lt;font style=&quot;font-size: 13px;&quot;&gt;pozice&lt;/font&gt;&lt;/b&gt;&lt;/div&gt;" style="text;html=1;align=center;verticalAlign=middle;whiteSpace=wrap;rounded=0;" parent="1" vertex="1">
          <mxGeometry x="560" y="440" width="110" height="40" as="geometry" />
        </mxCell>
        <mxCell id="bvdnGXiHSrHb0jFeeu1T-121" value="" style="rounded=0;whiteSpace=wrap;html=1;strokeColor=#FF6666;strokeWidth=2;" parent="1" vertex="1">
          <mxGeometry x="520" y="160" width="160" height="40" as="geometry" />
        </mxCell>
        <mxCell id="bvdnGXiHSrHb0jFeeu1T-28" value="&lt;font style=&quot;font-size: 13px;&quot;&gt;&lt;b style=&quot;&quot;&gt;aktuálně zpracovávaná&lt;/b&gt;&lt;/font&gt;&lt;div&gt;&lt;font style=&quot;font-size: 13px;&quot;&gt;&lt;b style=&quot;&quot;&gt;pozice&lt;/b&gt;&lt;/font&gt;&lt;/div&gt;" style="text;html=1;align=center;verticalAlign=middle;whiteSpace=wrap;rounded=0;" parent="1" vertex="1">
          <mxGeometry x="520" y="160" width="160" height="40" as="geometry" />
        </mxCell>
        <mxCell id="bvdnGXiHSrHb0jFeeu1T-124" value="" style="rounded=0;whiteSpace=wrap;html=1;fillColor=#f5f5f5;strokeColor=#FF6666;fontColor=#333333;strokeWidth=2;" parent="1" vertex="1">
          <mxGeometry x="430" y="730" width="40" height="40" as="geometry" />
        </mxCell>
        <mxCell id="bvdnGXiHSrHb0jFeeu1T-125" value="" style="rounded=0;whiteSpace=wrap;html=1;fillColor=#f5f5f5;strokeColor=#666666;fontColor=#333333;" parent="1" vertex="1">
          <mxGeometry x="580" y="730" width="40" height="40" as="geometry" />
        </mxCell>
        <mxCell id="bvdnGXiHSrHb0jFeeu1T-126" value="" style="rounded=0;whiteSpace=wrap;html=1;fillColor=#f5f5f5;strokeColor=#666666;fontColor=#333333;" parent="1" vertex="1">
          <mxGeometry x="530" y="730" width="40" height="40" as="geometry" />
        </mxCell>
        <mxCell id="bvdnGXiHSrHb0jFeeu1T-127" value="" style="rounded=0;whiteSpace=wrap;html=1;fillColor=#f5f5f5;strokeColor=#666666;fontColor=#333333;" parent="1" vertex="1">
          <mxGeometry x="480" y="730" width="40" height="40" as="geometry" />
        </mxCell>
        <mxCell id="bvdnGXiHSrHb0jFeeu1T-128" value="" style="rounded=0;whiteSpace=wrap;html=1;strokeColor=#FF6666;strokeWidth=2;" parent="1" vertex="1">
          <mxGeometry x="390" y="820" width="120" height="40" as="geometry" />
        </mxCell>
        <mxCell id="bvdnGXiHSrHb0jFeeu1T-129" value="&lt;b&gt;aktuálně plněná&lt;/b&gt;&lt;div&gt;&lt;b&gt;pozice&lt;/b&gt;&lt;/div&gt;" style="text;html=1;align=center;verticalAlign=middle;whiteSpace=wrap;rounded=0;strokeWidth=2;strokeColor=none;" parent="1" vertex="1">
          <mxGeometry x="390" y="820" width="120" height="40" as="geometry" />
        </mxCell>
        <mxCell id="bvdnGXiHSrHb0jFeeu1T-130" value="" style="endArrow=classic;html=1;rounded=0;entryX=0.5;entryY=1;entryDx=0;entryDy=0;exitX=0.097;exitY=-0.002;exitDx=0;exitDy=0;exitPerimeter=0;strokeWidth=2;" parent="1" source="bvdnGXiHSrHb0jFeeu1T-113" target="bvdnGXiHSrHb0jFeeu1T-127" edge="1">
          <mxGeometry width="50" height="50" relative="1" as="geometry">
            <mxPoint x="548.5" y="809" as="sourcePoint" />
            <mxPoint x="551.5" y="760" as="targetPoint" />
          </mxGeometry>
        </mxCell>
        <mxCell id="bvdnGXiHSrHb0jFeeu1T-131" value="" style="endArrow=classic;html=1;rounded=0;entryX=0.5;entryY=1;entryDx=0;entryDy=0;exitX=0.178;exitY=-0.003;exitDx=0;exitDy=0;exitPerimeter=0;strokeWidth=2;" parent="1" source="bvdnGXiHSrHb0jFeeu1T-113" target="bvdnGXiHSrHb0jFeeu1T-126" edge="1">
          <mxGeometry width="50" height="50" relative="1" as="geometry">
            <mxPoint x="580" y="830" as="sourcePoint" />
            <mxPoint x="630" y="780" as="targetPoint" />
          </mxGeometry>
        </mxCell>
        <mxCell id="bvdnGXiHSrHb0jFeeu1T-132" value="" style="endArrow=classic;html=1;rounded=0;entryX=0.5;entryY=1;entryDx=0;entryDy=0;exitX=0.287;exitY=-0.007;exitDx=0;exitDy=0;exitPerimeter=0;strokeWidth=2;" parent="1" source="bvdnGXiHSrHb0jFeeu1T-113" target="bvdnGXiHSrHb0jFeeu1T-125" edge="1">
          <mxGeometry width="50" height="50" relative="1" as="geometry">
            <mxPoint x="580" y="830" as="sourcePoint" />
            <mxPoint x="630" y="780" as="targetPoint" />
          </mxGeometry>
        </mxCell>
        <mxCell id="bvdnGXiHSrHb0jFeeu1T-133" value="" style="endArrow=classic;html=1;rounded=0;entryX=0.536;entryY=1.013;entryDx=0;entryDy=0;entryPerimeter=0;exitX=0.5;exitY=0;exitDx=0;exitDy=0;strokeWidth=2;" parent="1" source="bvdnGXiHSrHb0jFeeu1T-113" edge="1">
          <mxGeometry width="50" height="50" relative="1" as="geometry">
            <mxPoint x="648.5" y="819" as="sourcePoint" />
            <mxPoint x="651.5" y="770" as="targetPoint" />
          </mxGeometry>
        </mxCell>
        <mxCell id="bvdnGXiHSrHb0jFeeu1T-134" value="" style="rounded=0;whiteSpace=wrap;html=1;strokeColor=#FF6666;strokeWidth=2;" parent="1" vertex="1">
          <mxGeometry x="370" y="550" width="160" height="40" as="geometry" />
        </mxCell>
        <mxCell id="bvdnGXiHSrHb0jFeeu1T-135" value="&lt;b&gt;&lt;font style=&quot;font-size: 13px;&quot;&gt;aktuálně zpracovávaná&lt;/font&gt;&lt;/b&gt;&lt;div&gt;&lt;b&gt;&lt;font style=&quot;font-size: 13px;&quot;&gt;pozice&lt;/font&gt;&lt;/b&gt;&lt;/div&gt;" style="text;html=1;align=center;verticalAlign=middle;whiteSpace=wrap;rounded=0;" parent="1" vertex="1">
          <mxGeometry x="370" y="550" width="160" height="40" as="geometry" />
        </mxCell>
        <mxCell id="bvdnGXiHSrHb0jFeeu1T-137" value="" style="rounded=0;whiteSpace=wrap;html=1;fillColor=#d5e8d4;strokeColor=#FF6666;strokeWidth=2;" parent="1" vertex="1">
          <mxGeometry x="430" y="640" width="40" height="40" as="geometry" />
        </mxCell>
        <mxCell id="bvdnGXiHSrHb0jFeeu1T-138" value="" style="rounded=0;whiteSpace=wrap;html=1;fillColor=#d5e8d4;strokeColor=#000000;" parent="1" vertex="1">
          <mxGeometry x="530" y="640" width="40" height="40" as="geometry" />
        </mxCell>
        <mxCell id="bvdnGXiHSrHb0jFeeu1T-139" value="" style="rounded=0;whiteSpace=wrap;html=1;fillColor=#d5e8d4;strokeColor=#000000;" parent="1" vertex="1">
          <mxGeometry x="480" y="640" width="40" height="40" as="geometry" />
        </mxCell>
        <mxCell id="bvdnGXiHSrHb0jFeeu1T-140" value="" style="endArrow=classic;html=1;rounded=0;exitX=0.473;exitY=0.995;exitDx=0;exitDy=0;entryX=0.5;entryY=0;entryDx=0;entryDy=0;fillColor=#fff2cc;strokeColor=#000000;exitPerimeter=0;strokeWidth=2;" parent="1" source="bvdnGXiHSrHb0jFeeu1T-92" target="bvdnGXiHSrHb0jFeeu1T-77" edge="1">
          <mxGeometry width="50" height="50" relative="1" as="geometry">
            <mxPoint x="660" y="590" as="sourcePoint" />
            <mxPoint x="630" y="640" as="targetPoint" />
          </mxGeometry>
        </mxCell>
        <mxCell id="bvdnGXiHSrHb0jFeeu1T-141" value="" style="endArrow=classic;html=1;rounded=0;exitX=0.37;exitY=1.009;exitDx=0;exitDy=0;fillColor=#fff2cc;strokeColor=#000000;exitPerimeter=0;entryX=0.5;entryY=0;entryDx=0;entryDy=0;strokeWidth=2;" parent="1" source="bvdnGXiHSrHb0jFeeu1T-92" target="bvdnGXiHSrHb0jFeeu1T-138" edge="1">
          <mxGeometry width="50" height="50" relative="1" as="geometry">
            <mxPoint x="610" y="590" as="sourcePoint" />
            <mxPoint x="550" y="640" as="targetPoint" />
          </mxGeometry>
        </mxCell>
        <mxCell id="bvdnGXiHSrHb0jFeeu1T-142" value="&lt;font style=&quot;font-size: 15px;&quot;&gt;&lt;b style=&quot;&quot;&gt;vyrovávací paměť 1.&lt;/b&gt;&lt;/font&gt;" style="text;html=1;align=left;verticalAlign=middle;whiteSpace=wrap;rounded=0;" parent="1" vertex="1">
          <mxGeometry x="840" y="645" width="160" height="30" as="geometry" />
        </mxCell>
        <mxCell id="bvdnGXiHSrHb0jFeeu1T-143" value="&lt;font style=&quot;font-size: 15px;&quot;&gt;&lt;b style=&quot;&quot;&gt;vyrovávací paměť 2.&lt;/b&gt;&lt;/font&gt;" style="text;html=1;align=left;verticalAlign=middle;whiteSpace=wrap;rounded=0;" parent="1" vertex="1">
          <mxGeometry x="840" y="730" width="160" height="30" as="geometry" />
        </mxCell>
      </root>
    </mxGraphModel>
  </diagram>
</mxfile>
